<svg xmlns="http://www.w3.org/2000/svg" xmlns:xlink="http://www.w3.org/1999/xlink" width="143" zoomAndPan="magnify" viewBox="0 0 107.25 59.249999" height="79" preserveAspectRatio="xMidYMid meet" version="1.0"><defs><g/><clipPath id="eb03f37480"><path d="M 0.0234375 2 L 6 2 L 6 8 L 0.0234375 8 Z M 0.0234375 2 " clip-rule="nonzero"/></clipPath><clipPath id="9c771439ce"><rect x="0" width="70" y="0" height="11"/></clipPath></defs><g fill="#aa61b5" fill-opacity="1"><g transform="translate(0.867042, 27.546217)"><g><path d="M 1.03125 0 L 1.03125 -9.21875 L 5.734375 -9.21875 C 6.441406 -9.21875 7.109375 -9.128906 7.734375 -8.953125 C 8.359375 -8.785156 8.90625 -8.519531 9.375 -8.15625 C 9.851562 -7.789062 10.222656 -7.316406 10.484375 -6.734375 C 10.753906 -6.148438 10.890625 -5.441406 10.890625 -4.609375 C 10.890625 -3.710938 10.742188 -2.96875 10.453125 -2.375 C 10.160156 -1.78125 9.753906 -1.304688 9.234375 -0.953125 C 8.722656 -0.609375 8.117188 -0.363281 7.421875 -0.21875 C 6.734375 -0.0703125 5.988281 0 5.1875 0 Z M 3.34375 -7.328125 L 3.34375 -1.890625 L 5.140625 -1.890625 C 6.203125 -1.890625 7.003906 -2.125 7.546875 -2.59375 C 8.085938 -3.070312 8.359375 -3.753906 8.359375 -4.640625 C 8.359375 -6.429688 7.285156 -7.328125 5.140625 -7.328125 Z M 3.34375 -7.328125 "/></g></g></g><g fill="#aa61b5" fill-opacity="1"><g transform="translate(12.281849, 27.546217)"><g><path d="M 1.03125 0 L 1.03125 -9.21875 L 6.6875 -9.21875 C 7.882812 -9.21875 8.78125 -9.019531 9.375 -8.625 C 9.96875 -8.238281 10.265625 -7.609375 10.265625 -6.734375 C 10.265625 -6.191406 10.128906 -5.710938 9.859375 -5.296875 C 9.597656 -4.890625 9.222656 -4.59375 8.734375 -4.40625 C 9.066406 -4.269531 9.3125 -4.113281 9.46875 -3.9375 C 9.625 -3.769531 9.726562 -3.566406 9.78125 -3.328125 C 9.84375 -3.085938 9.878906 -2.789062 9.890625 -2.4375 C 9.921875 -1.882812 9.957031 -1.398438 10 -0.984375 C 10.039062 -0.578125 10.171875 -0.25 10.390625 0 L 7.796875 0 C 7.671875 -0.195312 7.609375 -0.429688 7.609375 -0.703125 L 7.609375 -1.34375 C 7.609375 -1.863281 7.570312 -2.269531 7.5 -2.5625 C 7.425781 -2.863281 7.269531 -3.078125 7.03125 -3.203125 C 6.800781 -3.328125 6.457031 -3.390625 6 -3.390625 L 3.34375 -3.390625 L 3.34375 0 Z M 3.34375 -7.328125 L 3.34375 -5.28125 L 5.953125 -5.28125 C 6.578125 -5.28125 7.046875 -5.351562 7.359375 -5.5 C 7.671875 -5.644531 7.828125 -5.9375 7.828125 -6.375 C 7.828125 -6.664062 7.753906 -6.875 7.609375 -7 C 7.460938 -7.132812 7.242188 -7.222656 6.953125 -7.265625 C 6.660156 -7.304688 6.289062 -7.328125 5.84375 -7.328125 Z M 3.34375 -7.328125 "/></g></g></g><g fill="#aa61b5" fill-opacity="1"><g transform="translate(23.202022, 27.546217)"><g><path d="M 1.140625 0 L 1.140625 -2.203125 L 3.453125 -2.203125 L 3.453125 0 Z M 1.140625 0 "/></g></g></g><g fill="#aa61b5" fill-opacity="1"><g transform="translate(27.793307, 27.546217)"><g/></g></g><g fill="#aa61b5" fill-opacity="1"><g transform="translate(32.448013, 27.546217)"><g><path d="M 1.03125 0 L 1.03125 -9.21875 L 6.484375 -9.21875 C 7.566406 -9.21875 8.398438 -8.9375 8.984375 -8.375 C 9.578125 -7.8125 9.875 -7.046875 9.875 -6.078125 C 9.875 -5.109375 9.578125 -4.332031 8.984375 -3.75 C 8.398438 -3.175781 7.566406 -2.890625 6.484375 -2.890625 L 3.34375 -2.890625 L 3.34375 0 Z M 3.34375 -7.328125 L 3.34375 -4.78125 L 5.453125 -4.78125 C 6.171875 -4.78125 6.703125 -4.863281 7.046875 -5.03125 C 7.390625 -5.195312 7.5625 -5.535156 7.5625 -6.046875 C 7.5625 -6.566406 7.40625 -6.910156 7.09375 -7.078125 C 6.789062 -7.242188 6.296875 -7.328125 5.609375 -7.328125 Z M 3.34375 -7.328125 "/></g></g></g><g fill="#aa61b5" fill-opacity="1"><g transform="translate(42.848168, 27.546217)"><g><path d="M 1.03125 0 L 1.03125 -9.21875 L 6.6875 -9.21875 C 7.882812 -9.21875 8.78125 -9.019531 9.375 -8.625 C 9.96875 -8.238281 10.265625 -7.609375 10.265625 -6.734375 C 10.265625 -6.191406 10.128906 -5.710938 9.859375 -5.296875 C 9.597656 -4.890625 9.222656 -4.59375 8.734375 -4.40625 C 9.066406 -4.269531 9.3125 -4.113281 9.46875 -3.9375 C 9.625 -3.769531 9.726562 -3.566406 9.78125 -3.328125 C 9.84375 -3.085938 9.878906 -2.789062 9.890625 -2.4375 C 9.921875 -1.882812 9.957031 -1.398438 10 -0.984375 C 10.039062 -0.578125 10.171875 -0.25 10.390625 0 L 7.796875 0 C 7.671875 -0.195312 7.609375 -0.429688 7.609375 -0.703125 L 7.609375 -1.34375 C 7.609375 -1.863281 7.570312 -2.269531 7.5 -2.5625 C 7.425781 -2.863281 7.269531 -3.078125 7.03125 -3.203125 C 6.800781 -3.328125 6.457031 -3.390625 6 -3.390625 L 3.34375 -3.390625 L 3.34375 0 Z M 3.34375 -7.328125 L 3.34375 -5.28125 L 5.953125 -5.28125 C 6.578125 -5.28125 7.046875 -5.351562 7.359375 -5.5 C 7.671875 -5.644531 7.828125 -5.9375 7.828125 -6.375 C 7.828125 -6.664062 7.753906 -6.875 7.609375 -7 C 7.460938 -7.132812 7.242188 -7.222656 6.953125 -7.265625 C 6.660156 -7.304688 6.289062 -7.328125 5.84375 -7.328125 Z M 3.34375 -7.328125 "/></g></g></g><g fill="#aa61b5" fill-opacity="1"><g transform="translate(53.76834, 27.546217)"><g><path d="M -0.25 0 L 4.109375 -9.21875 L 6.3125 -9.21875 L 10.515625 0 L 7.953125 0 L 7.125 -1.953125 L 3.0625 -1.953125 L 2.234375 0 Z M 3.84375 -3.8125 L 6.28125 -3.8125 L 5.046875 -6.65625 Z M 3.84375 -3.8125 "/></g></g></g><g fill="#aa61b5" fill-opacity="1"><g transform="translate(64.028984, 27.546217)"><g><path d="M 1.03125 0 L 1.03125 -9.21875 L 5.734375 -9.21875 C 6.441406 -9.21875 7.109375 -9.128906 7.734375 -8.953125 C 8.359375 -8.785156 8.90625 -8.519531 9.375 -8.15625 C 9.851562 -7.789062 10.222656 -7.316406 10.484375 -6.734375 C 10.753906 -6.148438 10.890625 -5.441406 10.890625 -4.609375 C 10.890625 -3.710938 10.742188 -2.96875 10.453125 -2.375 C 10.160156 -1.78125 9.753906 -1.304688 9.234375 -0.953125 C 8.722656 -0.609375 8.117188 -0.363281 7.421875 -0.21875 C 6.734375 -0.0703125 5.988281 0 5.1875 0 Z M 3.34375 -7.328125 L 3.34375 -1.890625 L 5.140625 -1.890625 C 6.203125 -1.890625 7.003906 -2.125 7.546875 -2.59375 C 8.085938 -3.070312 8.359375 -3.753906 8.359375 -4.640625 C 8.359375 -6.429688 7.285156 -7.328125 5.140625 -7.328125 Z M 3.34375 -7.328125 "/></g></g></g><g fill="#aa61b5" fill-opacity="1"><g transform="translate(75.443791, 27.546217)"><g><path d="M 1.03125 -9.21875 L 9.21875 -9.21875 L 9.21875 -7.328125 L 3.34375 -7.328125 L 3.34375 -5.78125 L 8.5625 -5.78125 L 8.5625 -3.890625 L 3.34375 -3.890625 L 3.34375 -1.890625 L 9.21875 -1.890625 L 9.21875 0 L 1.03125 0 Z M 1.03125 -9.21875 "/></g></g></g><g fill="#aa61b5" fill-opacity="1"><g transform="translate(85.336631, 27.546217)"><g><path d="M 1.03125 -9.21875 L 9.21875 -9.21875 L 9.21875 -7.328125 L 3.34375 -7.328125 L 3.34375 -5.78125 L 8.5625 -5.78125 L 8.5625 -3.890625 L 3.34375 -3.890625 L 3.34375 -1.890625 L 9.21875 -1.890625 L 9.21875 0 L 1.03125 0 Z M 1.03125 -9.21875 "/></g></g></g><g fill="#aa61b5" fill-opacity="1"><g transform="translate(95.229471, 27.546217)"><g><path d="M 1.03125 0 L 1.03125 -9.21875 L 6.484375 -9.21875 C 7.566406 -9.21875 8.398438 -8.9375 8.984375 -8.375 C 9.578125 -7.8125 9.875 -7.046875 9.875 -6.078125 C 9.875 -5.109375 9.578125 -4.332031 8.984375 -3.75 C 8.398438 -3.175781 7.566406 -2.890625 6.484375 -2.890625 L 3.34375 -2.890625 L 3.34375 0 Z M 3.34375 -7.328125 L 3.34375 -4.78125 L 5.453125 -4.78125 C 6.171875 -4.78125 6.703125 -4.863281 7.046875 -5.03125 C 7.390625 -5.195312 7.5625 -5.535156 7.5625 -6.046875 C 7.5625 -6.566406 7.40625 -6.910156 7.09375 -7.078125 C 6.789062 -7.242188 6.296875 -7.328125 5.609375 -7.328125 Z M 3.34375 -7.328125 "/></g></g></g><g transform="matrix(1, 0, 0, 1, 19, 29)"><g clip-path="url(#9c771439ce)"><g clip-path="url(#eb03f37480)"><g fill="#55d9d7" fill-opacity="1"><g transform="translate(0.412368, 7.445596)"><g><path d="M 2.734375 0.078125 C 2.273438 0.078125 1.867188 -0.0195312 1.515625 -0.21875 C 1.160156 -0.414062 0.878906 -0.691406 0.671875 -1.046875 C 0.472656 -1.410156 0.375 -1.820312 0.375 -2.28125 C 0.375 -2.75 0.472656 -3.160156 0.671875 -3.515625 C 0.878906 -3.867188 1.160156 -4.144531 1.515625 -4.34375 C 1.867188 -4.539062 2.273438 -4.640625 2.734375 -4.640625 C 3.203125 -4.640625 3.613281 -4.539062 3.96875 -4.34375 C 4.320312 -4.144531 4.597656 -3.867188 4.796875 -3.515625 C 5.003906 -3.160156 5.109375 -2.75 5.109375 -2.28125 C 5.109375 -1.820312 5.003906 -1.410156 4.796875 -1.046875 C 4.597656 -0.691406 4.320312 -0.414062 3.96875 -0.21875 C 3.613281 -0.0195312 3.203125 0.078125 2.734375 0.078125 Z M 0.96875 -2.28125 C 0.96875 -1.925781 1.039062 -1.613281 1.1875 -1.34375 C 1.332031 -1.070312 1.539062 -0.859375 1.8125 -0.703125 C 2.082031 -0.554688 2.390625 -0.484375 2.734375 -0.484375 C 3.085938 -0.484375 3.394531 -0.554688 3.65625 -0.703125 C 3.925781 -0.859375 4.132812 -1.070312 4.28125 -1.34375 C 4.4375 -1.613281 4.515625 -1.925781 4.515625 -2.28125 C 4.515625 -2.632812 4.4375 -2.941406 4.28125 -3.203125 C 4.132812 -3.472656 3.925781 -3.6875 3.65625 -3.84375 C 3.394531 -4 3.085938 -4.078125 2.734375 -4.078125 C 2.390625 -4.078125 2.082031 -4 1.8125 -3.84375 C 1.539062 -3.6875 1.332031 -3.472656 1.1875 -3.203125 C 1.039062 -2.941406 0.96875 -2.632812 0.96875 -2.28125 Z M 0.96875 -2.28125 "/></g></g></g></g><g fill="#55d9d7" fill-opacity="1"><g transform="translate(5.879676, 7.445596)"><g><path d="M 0.609375 0 L 0.609375 -3.375 L 1.0625 -3.375 L 1.125 -2.796875 C 1.238281 -2.992188 1.382812 -3.140625 1.5625 -3.234375 C 1.75 -3.328125 1.988281 -3.375 2.28125 -3.375 L 2.578125 -3.375 L 2.578125 -2.875 L 2.25 -2.875 C 2.039062 -2.875 1.851562 -2.832031 1.6875 -2.75 C 1.53125 -2.664062 1.398438 -2.523438 1.296875 -2.328125 C 1.203125 -2.140625 1.15625 -1.882812 1.15625 -1.5625 L 1.15625 0 Z M 0.609375 0 "/></g></g></g><g fill="#55d9d7" fill-opacity="1"><g transform="translate(8.717469, 7.445596)"><g><path d="M 2.0625 0 C 1.6875 0 1.394531 -0.101562 1.1875 -0.3125 C 0.988281 -0.53125 0.890625 -0.832031 0.890625 -1.21875 L 0.890625 -2.875 L 0.171875 -2.875 L 0.171875 -3.375 L 0.515625 -3.375 C 0.671875 -3.375 0.78125 -3.398438 0.84375 -3.453125 C 0.90625 -3.503906 0.941406 -3.609375 0.953125 -3.765625 L 1.015625 -4.21875 L 1.4375 -4.21875 L 1.4375 -3.375 L 2.53125 -3.375 L 2.53125 -2.875 L 1.4375 -2.875 L 1.4375 -1.25 C 1.4375 -0.769531 1.65625 -0.53125 2.09375 -0.53125 L 2.578125 -0.53125 L 2.578125 0 Z M 2.0625 0 "/></g></g></g><g fill="#55d9d7" fill-opacity="1"><g transform="translate(11.607328, 7.445596)"><g><path d="M 0.609375 0 L 0.609375 -4.828125 L 1.15625 -4.828125 L 1.15625 -2.9375 C 1.300781 -3.125 1.472656 -3.257812 1.671875 -3.34375 C 1.878906 -3.425781 2.09375 -3.46875 2.3125 -3.46875 C 2.757812 -3.46875 3.109375 -3.328125 3.359375 -3.046875 C 3.609375 -2.765625 3.734375 -2.382812 3.734375 -1.90625 L 3.734375 0 L 3.1875 0 L 3.1875 -1.84375 C 3.1875 -2.1875 3.101562 -2.453125 2.9375 -2.640625 C 2.769531 -2.835938 2.535156 -2.9375 2.234375 -2.9375 C 1.921875 -2.9375 1.660156 -2.828125 1.453125 -2.609375 C 1.253906 -2.390625 1.15625 -2.097656 1.15625 -1.734375 L 1.15625 0 Z M 0.609375 0 "/></g></g></g><g fill="#55d9d7" fill-opacity="1"><g transform="translate(15.883537, 7.445596)"><g><path d="M 2.125 0.078125 C 1.78125 0.078125 1.472656 0.00390625 1.203125 -0.140625 C 0.929688 -0.296875 0.71875 -0.503906 0.5625 -0.765625 C 0.414062 -1.035156 0.34375 -1.34375 0.34375 -1.6875 C 0.34375 -2.039062 0.414062 -2.347656 0.5625 -2.609375 C 0.71875 -2.878906 0.929688 -3.085938 1.203125 -3.234375 C 1.472656 -3.390625 1.78125 -3.46875 2.125 -3.46875 C 2.476562 -3.46875 2.789062 -3.390625 3.0625 -3.234375 C 3.332031 -3.085938 3.539062 -2.878906 3.6875 -2.609375 C 3.84375 -2.347656 3.921875 -2.039062 3.921875 -1.6875 C 3.921875 -1.34375 3.84375 -1.035156 3.6875 -0.765625 C 3.539062 -0.503906 3.332031 -0.296875 3.0625 -0.140625 C 2.789062 0.00390625 2.476562 0.078125 2.125 0.078125 Z M 0.890625 -1.6875 C 0.890625 -1.445312 0.941406 -1.226562 1.046875 -1.03125 C 1.148438 -0.84375 1.296875 -0.695312 1.484375 -0.59375 C 1.671875 -0.488281 1.882812 -0.4375 2.125 -0.4375 C 2.375 -0.4375 2.59375 -0.488281 2.78125 -0.59375 C 2.96875 -0.695312 3.113281 -0.84375 3.21875 -1.03125 C 3.320312 -1.226562 3.375 -1.445312 3.375 -1.6875 C 3.375 -1.9375 3.320312 -2.15625 3.21875 -2.34375 C 3.113281 -2.53125 2.96875 -2.675781 2.78125 -2.78125 C 2.59375 -2.882812 2.375 -2.9375 2.125 -2.9375 C 1.882812 -2.9375 1.671875 -2.882812 1.484375 -2.78125 C 1.296875 -2.675781 1.148438 -2.53125 1.046875 -2.34375 C 0.941406 -2.15625 0.890625 -1.9375 0.890625 -1.6875 Z M 0.890625 -1.6875 "/></g></g></g><g fill="#55d9d7" fill-opacity="1"><g transform="translate(20.140223, 7.445596)"><g><path d="M 2.453125 0.078125 C 2.179688 0.078125 1.929688 0.03125 1.703125 -0.0625 C 1.484375 -0.164062 1.300781 -0.304688 1.15625 -0.484375 L 1.15625 1.296875 L 0.609375 1.296875 L 0.609375 -3.375 L 1.0625 -3.375 L 1.125 -2.859375 C 1.269531 -3.046875 1.457031 -3.191406 1.6875 -3.296875 C 1.914062 -3.410156 2.171875 -3.46875 2.453125 -3.46875 C 2.785156 -3.46875 3.082031 -3.390625 3.34375 -3.234375 C 3.601562 -3.078125 3.804688 -2.863281 3.953125 -2.59375 C 4.097656 -2.332031 4.171875 -2.03125 4.171875 -1.6875 C 4.171875 -1.34375 4.097656 -1.035156 3.953125 -0.765625 C 3.804688 -0.503906 3.601562 -0.296875 3.34375 -0.140625 C 3.082031 0.00390625 2.785156 0.078125 2.453125 0.078125 Z M 1.140625 -1.6875 C 1.140625 -1.445312 1.191406 -1.234375 1.296875 -1.046875 C 1.398438 -0.859375 1.546875 -0.707031 1.734375 -0.59375 C 1.921875 -0.488281 2.132812 -0.4375 2.375 -0.4375 C 2.625 -0.4375 2.84375 -0.488281 3.03125 -0.59375 C 3.21875 -0.707031 3.363281 -0.859375 3.46875 -1.046875 C 3.570312 -1.234375 3.625 -1.445312 3.625 -1.6875 C 3.625 -1.9375 3.570312 -2.15625 3.46875 -2.34375 C 3.363281 -2.53125 3.21875 -2.675781 3.03125 -2.78125 C 2.84375 -2.882812 2.625 -2.9375 2.375 -2.9375 C 2.132812 -2.9375 1.921875 -2.882812 1.734375 -2.78125 C 1.546875 -2.675781 1.398438 -2.53125 1.296875 -2.34375 C 1.191406 -2.15625 1.140625 -1.9375 1.140625 -1.6875 Z M 1.140625 -1.6875 "/></g></g></g><g fill="#55d9d7" fill-opacity="1"><g transform="translate(24.644242, 7.445596)"><g><path d="M 2.078125 0.078125 C 1.734375 0.078125 1.429688 0.00390625 1.171875 -0.140625 C 0.910156 -0.285156 0.707031 -0.492188 0.5625 -0.765625 C 0.414062 -1.035156 0.34375 -1.34375 0.34375 -1.6875 C 0.34375 -2.039062 0.414062 -2.347656 0.5625 -2.609375 C 0.707031 -2.878906 0.910156 -3.085938 1.171875 -3.234375 C 1.429688 -3.390625 1.734375 -3.46875 2.078125 -3.46875 C 2.441406 -3.46875 2.753906 -3.378906 3.015625 -3.203125 C 3.285156 -3.035156 3.488281 -2.800781 3.625 -2.5 C 3.769531 -2.207031 3.832031 -1.863281 3.8125 -1.46875 L 0.890625 -1.46875 C 0.929688 -1.15625 1.054688 -0.90625 1.265625 -0.71875 C 1.484375 -0.53125 1.753906 -0.4375 2.078125 -0.4375 C 2.296875 -0.4375 2.492188 -0.484375 2.671875 -0.578125 C 2.859375 -0.671875 3.003906 -0.804688 3.109375 -0.984375 L 3.734375 -0.984375 C 3.597656 -0.648438 3.378906 -0.390625 3.078125 -0.203125 C 2.785156 -0.015625 2.453125 0.078125 2.078125 0.078125 Z M 0.90625 -1.953125 L 3.265625 -1.953125 C 3.210938 -2.265625 3.078125 -2.507812 2.859375 -2.6875 C 2.648438 -2.863281 2.390625 -2.953125 2.078125 -2.953125 C 1.765625 -2.953125 1.5 -2.859375 1.28125 -2.671875 C 1.070312 -2.492188 0.945312 -2.253906 0.90625 -1.953125 Z M 0.90625 -1.953125 "/></g></g></g><g fill="#55d9d7" fill-opacity="1"><g transform="translate(28.78377, 7.445596)"><g><path d="M 2.0625 0.078125 C 1.726562 0.078125 1.429688 0.00390625 1.171875 -0.140625 C 0.910156 -0.296875 0.707031 -0.503906 0.5625 -0.765625 C 0.414062 -1.035156 0.34375 -1.34375 0.34375 -1.6875 C 0.34375 -2.03125 0.414062 -2.332031 0.5625 -2.59375 C 0.707031 -2.863281 0.910156 -3.078125 1.171875 -3.234375 C 1.429688 -3.390625 1.726562 -3.46875 2.0625 -3.46875 C 2.332031 -3.46875 2.578125 -3.414062 2.796875 -3.3125 C 3.015625 -3.21875 3.203125 -3.082031 3.359375 -2.90625 L 3.359375 -4.828125 L 3.90625 -4.828125 L 3.90625 0 L 3.453125 0 L 3.390625 -0.515625 C 3.234375 -0.328125 3.039062 -0.179688 2.8125 -0.078125 C 2.582031 0.0234375 2.332031 0.078125 2.0625 0.078125 Z M 0.890625 -1.6875 C 0.890625 -1.445312 0.941406 -1.234375 1.046875 -1.046875 C 1.148438 -0.859375 1.296875 -0.707031 1.484375 -0.59375 C 1.671875 -0.488281 1.882812 -0.4375 2.125 -0.4375 C 2.375 -0.4375 2.59375 -0.488281 2.78125 -0.59375 C 2.96875 -0.707031 3.113281 -0.859375 3.21875 -1.046875 C 3.320312 -1.234375 3.375 -1.445312 3.375 -1.6875 C 3.375 -1.9375 3.320312 -2.15625 3.21875 -2.34375 C 3.113281 -2.53125 2.96875 -2.675781 2.78125 -2.78125 C 2.59375 -2.882812 2.375 -2.9375 2.125 -2.9375 C 1.882812 -2.9375 1.671875 -2.882812 1.484375 -2.78125 C 1.296875 -2.675781 1.148438 -2.53125 1.046875 -2.34375 C 0.941406 -2.15625 0.890625 -1.9375 0.890625 -1.6875 Z M 0.890625 -1.6875 "/></g></g></g><g fill="#55d9d7" fill-opacity="1"><g transform="translate(33.287789, 7.445596)"><g><path d="M 0.609375 0 L 0.609375 -3.375 L 1.15625 -3.375 L 1.15625 0 Z M 0.4375 -4.359375 C 0.4375 -4.484375 0.472656 -4.585938 0.546875 -4.671875 C 0.628906 -4.753906 0.738281 -4.796875 0.875 -4.796875 C 1.007812 -4.796875 1.113281 -4.753906 1.1875 -4.671875 C 1.269531 -4.585938 1.3125 -4.484375 1.3125 -4.359375 C 1.3125 -4.242188 1.269531 -4.144531 1.1875 -4.0625 C 1.113281 -3.976562 1.007812 -3.9375 0.875 -3.9375 C 0.738281 -3.9375 0.628906 -3.976562 0.546875 -4.0625 C 0.472656 -4.144531 0.4375 -4.242188 0.4375 -4.359375 Z M 0.4375 -4.359375 "/></g></g></g><g fill="#55d9d7" fill-opacity="1"><g transform="translate(35.045136, 7.445596)"><g><path d="M 2.078125 0.078125 C 1.734375 0.078125 1.429688 0.00390625 1.171875 -0.140625 C 0.910156 -0.296875 0.707031 -0.503906 0.5625 -0.765625 C 0.414062 -1.035156 0.34375 -1.34375 0.34375 -1.6875 C 0.34375 -2.03125 0.414062 -2.335938 0.5625 -2.609375 C 0.707031 -2.878906 0.910156 -3.085938 1.171875 -3.234375 C 1.429688 -3.390625 1.734375 -3.46875 2.078125 -3.46875 C 2.359375 -3.46875 2.613281 -3.410156 2.84375 -3.296875 C 3.082031 -3.191406 3.28125 -3.046875 3.4375 -2.859375 C 3.601562 -2.671875 3.710938 -2.453125 3.765625 -2.203125 L 3.21875 -2.203125 C 3.113281 -2.429688 2.960938 -2.609375 2.765625 -2.734375 C 2.566406 -2.867188 2.335938 -2.9375 2.078125 -2.9375 C 1.847656 -2.9375 1.640625 -2.882812 1.453125 -2.78125 C 1.273438 -2.675781 1.132812 -2.53125 1.03125 -2.34375 C 0.9375 -2.15625 0.890625 -1.9375 0.890625 -1.6875 C 0.890625 -1.445312 0.9375 -1.234375 1.03125 -1.046875 C 1.132812 -0.859375 1.273438 -0.707031 1.453125 -0.59375 C 1.640625 -0.488281 1.847656 -0.4375 2.078125 -0.4375 C 2.347656 -0.4375 2.585938 -0.507812 2.796875 -0.65625 C 3.003906 -0.800781 3.148438 -1 3.234375 -1.25 L 3.8125 -1.25 C 3.695312 -0.832031 3.484375 -0.503906 3.171875 -0.265625 C 2.867188 -0.0351562 2.503906 0.078125 2.078125 0.078125 Z M 2.078125 0.078125 "/></g></g></g><g fill="#55d9d7" fill-opacity="1"><g transform="translate(39.171646, 7.445596)"><g/></g></g><g fill="#55d9d7" fill-opacity="1"><g transform="translate(40.785806, 7.445596)"><g><path d="M 2.1875 0.078125 C 1.820312 0.078125 1.503906 0.0195312 1.234375 -0.09375 C 0.960938 -0.21875 0.753906 -0.390625 0.609375 -0.609375 C 0.460938 -0.835938 0.390625 -1.101562 0.390625 -1.40625 L 0.96875 -1.40625 C 0.976562 -1.113281 1.09375 -0.882812 1.3125 -0.71875 C 1.539062 -0.550781 1.832031 -0.46875 2.1875 -0.46875 C 2.507812 -0.46875 2.765625 -0.53125 2.953125 -0.65625 C 3.140625 -0.78125 3.234375 -0.953125 3.234375 -1.171875 C 3.234375 -1.390625 3.140625 -1.5625 2.953125 -1.6875 C 2.773438 -1.820312 2.476562 -1.9375 2.0625 -2.03125 C 1.5 -2.164062 1.085938 -2.335938 0.828125 -2.546875 C 0.566406 -2.753906 0.4375 -3.035156 0.4375 -3.390625 C 0.4375 -3.773438 0.582031 -4.078125 0.875 -4.296875 C 1.175781 -4.523438 1.578125 -4.640625 2.078125 -4.640625 C 2.585938 -4.640625 2.988281 -4.507812 3.28125 -4.25 C 3.582031 -4 3.734375 -3.65625 3.734375 -3.21875 L 3.171875 -3.21875 C 3.171875 -3.488281 3.070312 -3.703125 2.875 -3.859375 C 2.675781 -4.015625 2.410156 -4.09375 2.078125 -4.09375 C 1.742188 -4.09375 1.484375 -4.03125 1.296875 -3.90625 C 1.117188 -3.78125 1.03125 -3.609375 1.03125 -3.390625 C 1.03125 -3.203125 1.113281 -3.039062 1.28125 -2.90625 C 1.457031 -2.78125 1.765625 -2.664062 2.203125 -2.5625 C 2.785156 -2.414062 3.203125 -2.234375 3.453125 -2.015625 C 3.703125 -1.804688 3.828125 -1.535156 3.828125 -1.203125 C 3.828125 -0.804688 3.675781 -0.492188 3.375 -0.265625 C 3.082031 -0.0351562 2.6875 0.078125 2.1875 0.078125 Z M 2.1875 0.078125 "/></g></g></g><g fill="#55d9d7" fill-opacity="1"><g transform="translate(44.996932, 7.445596)"><g><path d="M 1.953125 0.078125 C 1.515625 0.078125 1.171875 -0.0625 0.921875 -0.34375 C 0.671875 -0.632812 0.546875 -1.019531 0.546875 -1.5 L 0.546875 -3.375 L 1.09375 -3.375 L 1.09375 -1.546875 C 1.09375 -1.210938 1.175781 -0.941406 1.34375 -0.734375 C 1.507812 -0.535156 1.738281 -0.4375 2.03125 -0.4375 C 2.34375 -0.4375 2.597656 -0.550781 2.796875 -0.78125 C 2.992188 -1.007812 3.09375 -1.304688 3.09375 -1.671875 L 3.09375 -3.375 L 3.640625 -3.375 L 3.640625 0 L 3.1875 0 L 3.140625 -0.5 C 2.984375 -0.300781 2.800781 -0.15625 2.59375 -0.0625 C 2.394531 0.03125 2.179688 0.078125 1.953125 0.078125 Z M 1.953125 0.078125 "/></g></g></g><g fill="#55d9d7" fill-opacity="1"><g transform="translate(49.240599, 7.445596)"><g><path d="M 0.609375 0 L 0.609375 -3.375 L 1.0625 -3.375 L 1.125 -2.796875 C 1.238281 -2.992188 1.382812 -3.140625 1.5625 -3.234375 C 1.75 -3.328125 1.988281 -3.375 2.28125 -3.375 L 2.578125 -3.375 L 2.578125 -2.875 L 2.25 -2.875 C 2.039062 -2.875 1.851562 -2.832031 1.6875 -2.75 C 1.53125 -2.664062 1.398438 -2.523438 1.296875 -2.328125 C 1.203125 -2.140625 1.15625 -1.882812 1.15625 -1.5625 L 1.15625 0 Z M 0.609375 0 "/></g></g></g><g fill="#55d9d7" fill-opacity="1"><g transform="translate(52.078392, 7.445596)"><g><path d="M 2.125 1.390625 C 1.6875 1.390625 1.320312 1.28125 1.03125 1.0625 C 0.75 0.851562 0.578125 0.570312 0.515625 0.21875 L 1.078125 0.21875 C 1.128906 0.414062 1.242188 0.570312 1.421875 0.6875 C 1.609375 0.8125 1.84375 0.875 2.125 0.875 C 2.476562 0.875 2.75 0.78125 2.9375 0.59375 C 3.132812 0.40625 3.234375 0.132812 3.234375 -0.21875 L 3.234375 -0.53125 C 3.085938 -0.375 2.910156 -0.25 2.703125 -0.15625 C 2.492188 -0.0703125 2.269531 -0.03125 2.03125 -0.03125 C 1.707031 -0.03125 1.414062 -0.101562 1.15625 -0.25 C 0.90625 -0.40625 0.707031 -0.609375 0.5625 -0.859375 C 0.414062 -1.117188 0.34375 -1.414062 0.34375 -1.75 C 0.34375 -2.082031 0.414062 -2.375 0.5625 -2.625 C 0.707031 -2.882812 0.90625 -3.085938 1.15625 -3.234375 C 1.414062 -3.390625 1.707031 -3.46875 2.03125 -3.46875 C 2.28125 -3.46875 2.515625 -3.414062 2.734375 -3.3125 C 2.953125 -3.21875 3.132812 -3.085938 3.28125 -2.921875 L 3.34375 -3.375 L 3.78125 -3.375 L 3.78125 -0.203125 C 3.78125 0.117188 3.710938 0.398438 3.578125 0.640625 C 3.441406 0.878906 3.25 1.0625 3 1.1875 C 2.75 1.320312 2.457031 1.390625 2.125 1.390625 Z M 0.890625 -1.75 C 0.890625 -1.519531 0.9375 -1.3125 1.03125 -1.125 C 1.132812 -0.945312 1.273438 -0.804688 1.453125 -0.703125 C 1.640625 -0.609375 1.847656 -0.5625 2.078125 -0.5625 C 2.316406 -0.5625 2.523438 -0.609375 2.703125 -0.703125 C 2.890625 -0.804688 3.03125 -0.945312 3.125 -1.125 C 3.226562 -1.3125 3.28125 -1.519531 3.28125 -1.75 C 3.28125 -1.976562 3.226562 -2.179688 3.125 -2.359375 C 3.03125 -2.535156 2.890625 -2.675781 2.703125 -2.78125 C 2.523438 -2.882812 2.316406 -2.9375 2.078125 -2.9375 C 1.847656 -2.9375 1.640625 -2.882812 1.453125 -2.78125 C 1.273438 -2.675781 1.132812 -2.535156 1.03125 -2.359375 C 0.9375 -2.179688 0.890625 -1.976562 0.890625 -1.75 Z M 0.890625 -1.75 "/></g></g></g><g fill="#55d9d7" fill-opacity="1"><g transform="translate(56.465254, 7.445596)"><g><path d="M 2.078125 0.078125 C 1.734375 0.078125 1.429688 0.00390625 1.171875 -0.140625 C 0.910156 -0.285156 0.707031 -0.492188 0.5625 -0.765625 C 0.414062 -1.035156 0.34375 -1.34375 0.34375 -1.6875 C 0.34375 -2.039062 0.414062 -2.347656 0.5625 -2.609375 C 0.707031 -2.878906 0.910156 -3.085938 1.171875 -3.234375 C 1.429688 -3.390625 1.734375 -3.46875 2.078125 -3.46875 C 2.441406 -3.46875 2.753906 -3.378906 3.015625 -3.203125 C 3.285156 -3.035156 3.488281 -2.800781 3.625 -2.5 C 3.769531 -2.207031 3.832031 -1.863281 3.8125 -1.46875 L 0.890625 -1.46875 C 0.929688 -1.15625 1.054688 -0.90625 1.265625 -0.71875 C 1.484375 -0.53125 1.753906 -0.4375 2.078125 -0.4375 C 2.296875 -0.4375 2.492188 -0.484375 2.671875 -0.578125 C 2.859375 -0.671875 3.003906 -0.804688 3.109375 -0.984375 L 3.734375 -0.984375 C 3.597656 -0.648438 3.378906 -0.390625 3.078125 -0.203125 C 2.785156 -0.015625 2.453125 0.078125 2.078125 0.078125 Z M 0.90625 -1.953125 L 3.265625 -1.953125 C 3.210938 -2.265625 3.078125 -2.507812 2.859375 -2.6875 C 2.648438 -2.863281 2.390625 -2.953125 2.078125 -2.953125 C 1.765625 -2.953125 1.5 -2.859375 1.28125 -2.671875 C 1.070312 -2.492188 0.945312 -2.253906 0.90625 -1.953125 Z M 0.90625 -1.953125 "/></g></g></g><g fill="#55d9d7" fill-opacity="1"><g transform="translate(60.604782, 7.445596)"><g><path d="M 2.125 0.078125 C 1.78125 0.078125 1.472656 0.00390625 1.203125 -0.140625 C 0.929688 -0.296875 0.71875 -0.503906 0.5625 -0.765625 C 0.414062 -1.035156 0.34375 -1.34375 0.34375 -1.6875 C 0.34375 -2.039062 0.414062 -2.347656 0.5625 -2.609375 C 0.71875 -2.878906 0.929688 -3.085938 1.203125 -3.234375 C 1.472656 -3.390625 1.78125 -3.46875 2.125 -3.46875 C 2.476562 -3.46875 2.789062 -3.390625 3.0625 -3.234375 C 3.332031 -3.085938 3.539062 -2.878906 3.6875 -2.609375 C 3.84375 -2.347656 3.921875 -2.039062 3.921875 -1.6875 C 3.921875 -1.34375 3.84375 -1.035156 3.6875 -0.765625 C 3.539062 -0.503906 3.332031 -0.296875 3.0625 -0.140625 C 2.789062 0.00390625 2.476562 0.078125 2.125 0.078125 Z M 0.890625 -1.6875 C 0.890625 -1.445312 0.941406 -1.226562 1.046875 -1.03125 C 1.148438 -0.84375 1.296875 -0.695312 1.484375 -0.59375 C 1.671875 -0.488281 1.882812 -0.4375 2.125 -0.4375 C 2.375 -0.4375 2.59375 -0.488281 2.78125 -0.59375 C 2.96875 -0.695312 3.113281 -0.84375 3.21875 -1.03125 C 3.320312 -1.226562 3.375 -1.445312 3.375 -1.6875 C 3.375 -1.9375 3.320312 -2.15625 3.21875 -2.34375 C 3.113281 -2.53125 2.96875 -2.675781 2.78125 -2.78125 C 2.59375 -2.882812 2.375 -2.9375 2.125 -2.9375 C 1.882812 -2.9375 1.671875 -2.882812 1.484375 -2.78125 C 1.296875 -2.675781 1.148438 -2.53125 1.046875 -2.34375 C 0.941406 -2.15625 0.890625 -1.9375 0.890625 -1.6875 Z M 0.890625 -1.6875 "/></g></g></g><g fill="#55d9d7" fill-opacity="1"><g transform="translate(64.861468, 7.445596)"><g><path d="M 0.609375 0 L 0.609375 -3.375 L 1.0625 -3.375 L 1.109375 -2.890625 C 1.253906 -3.085938 1.429688 -3.234375 1.640625 -3.328125 C 1.859375 -3.421875 2.082031 -3.46875 2.3125 -3.46875 C 2.757812 -3.46875 3.109375 -3.320312 3.359375 -3.03125 C 3.609375 -2.75 3.734375 -2.367188 3.734375 -1.890625 L 3.734375 0 L 3.1875 0 L 3.1875 -1.828125 C 3.1875 -2.171875 3.097656 -2.441406 2.921875 -2.640625 C 2.753906 -2.835938 2.523438 -2.9375 2.234375 -2.9375 C 2.023438 -2.9375 1.835938 -2.882812 1.671875 -2.78125 C 1.515625 -2.6875 1.390625 -2.546875 1.296875 -2.359375 C 1.203125 -2.171875 1.15625 -1.953125 1.15625 -1.703125 L 1.15625 0 Z M 0.609375 0 "/></g></g></g></g></g></svg>